<?xml version="1.0" encoding="utf-8"?>
<!-- Generator: Adobe Illustrator 24.2.1, SVG Export Plug-In . SVG Version: 6.00 Build 0)  -->
<svg version="1.1" xmlns="http://www.w3.org/2000/svg" xmlns:xlink="http://www.w3.org/1999/xlink" x="0px" y="0px"
	 viewBox="0 0 600 600" style="enable-background:new 0 0 600 600;" xml:space="preserve">
<style type="text/css">
	.st0{display:none;}
	.st1{display:inline;}
	.st2{fill:#FFFFFF;}
	.st3{fill-rule:evenodd;clip-rule:evenodd;fill:#FFFFFF;}
	.st4{display:none;fill-rule:evenodd;clip-rule:evenodd;fill:#FFFFFF;}
	.st5{display:inline;fill-rule:evenodd;clip-rule:evenodd;fill:#FFFFFF;}
	.st6{display:inline;fill:#FFFFFF;}
	.st7{display:inline;fill:none;}
	.st8{font-family:'Oduda-Bold';}
	.st9{font-size:347px;}
</style>
<g id="Layer_2" class="st0">
	<rect class="st1" width="600" height="600"/>
</g>
<g id="Layer_1">
	<g id="fullscreen" class="st0">
		<path class="st2" d="M568.12,13.04c-19.68,0-39.37,0-59.05,0c-31.33,0-62.66,0-93.92,0c-7.15,0-14.23,0-21.39,0
			c-10.69,0-20.91,9.4-20.43,20.43c0.48,11.1,8.99,20.43,20.43,20.43c19.68,0,39.37,0,59.05,0c31.33,0,62.66,0,93.92,0
			c0.32,0,0.63,0,0.95,0c0,12.78,0,25.55,0,38.34c0,31.33,0,62.73,0,94.06c0,7.15,0,14.37,0,21.52c0,10.69,9.4,20.91,20.43,20.43
			c11.1-0.48,20.43-8.99,20.43-20.43c0-19.62,0-39.16,0-58.78c0-31.33,0-62.73,0-94.06c0-7.15,0-14.37,0-21.52
			C588.56,22.44,579.22,13.04,568.12,13.04z"/>
		<path class="st2" d="M568.12,372.65c-11.1,0.48-20.43,8.99-20.43,20.43c0,19.68,0,39.37,0,59.05c0,31.33,0,62.66,0,93.92
			c0,0.32,0,0.63,0,0.95c-12.87,0-25.74,0-38.62,0c-31.33,0-62.66,0-93.92,0c-7.15,0-14.23,0-21.39,0
			c-10.69,0-20.91,9.4-20.43,20.43c0.48,11.1,8.99,20.43,20.43,20.43c19.68,0,39.37,0,59.05,0c31.33,0,62.66,0,93.92,0
			c7.15,0,14.23,0,21.39,0c11.03,0,20.43-9.33,20.43-20.43c0-19.68,0-39.37,0-59.05c0-31.33,0-62.66,0-93.92c0-7.15,0-14.23,0-21.39
			C588.56,382.39,579.16,372.17,568.12,372.65z"/>
		<path class="st2" d="M208.51,13.04c-19.68,0-39.37,0-59.05,0c-31.33,0-62.66,0-93.92,0c-7.15,0-14.23,0-21.39,0
			c-11.03,0-20.43,9.33-20.43,20.43c0,19.68,0,39.37,0,59.05c0,31.33,0,62.66,0,93.92c0,7.15,0,14.23,0,21.39
			c0,10.69,9.4,20.91,20.43,20.43c11.1-0.48,20.43-8.99,20.43-20.43c0-19.68,0-39.37,0-59.05c0-31.33,0-62.66,0-93.92
			c0-0.32,0-0.63,0-0.95c12.87,0,25.74,0,38.62,0c31.33,0,62.66,0,93.92,0c7.15,0,14.23,0,21.39,0c10.69,0,20.91-9.4,20.43-20.43
			C228.47,22.37,219.96,13.04,208.51,13.04z"/>
		<path class="st2" d="M208.51,547c-19.68,0-39.37,0-59.05,0c-31.33,0-62.66,0-93.92,0c-0.32,0-0.63,0-0.95,0
			c0-12.87,0-25.74,0-38.62c0-31.33,0-62.66,0-93.92c0-7.15,0-14.23,0-21.39c0-10.69-9.4-20.91-20.43-20.43
			c-11.1,0.48-20.43,8.99-20.43,20.43c0,19.68,0,39.37,0,59.05c0,31.33,0,62.66,0,93.92c0,7.15,0,14.23,0,21.39
			c0,11.03,9.33,20.43,20.43,20.43c19.68,0,39.37,0,59.05,0c31.33,0,62.66,0,93.92,0c7.15,0,14.23,0,21.39,0
			c10.69,0,20.91-9.4,20.43-20.43C228.47,556.33,219.96,547,208.51,547z"/>
	</g>
	<g id="next">
		<path class="st3" d="M534.73,268.2L104.1,19.57C79.27,5.24,48.23,23.16,48.23,51.83v497.25c0,28.67,31.04,46.59,55.87,32.26
			l430.63-248.63C559.57,318.37,559.57,282.53,534.73,268.2z"/>
		<path class="st3" d="M513.45,586.43L513.45,586.43c-22.72,0-41.15-18.42-41.15-41.15V54.61c0-22.72,18.42-41.15,41.15-41.15h0
			c22.72,0,41.15,18.42,41.15,41.15v490.68C554.6,568.01,536.18,586.43,513.45,586.43z"/>
	</g>
	<path id="play" class="st4" d="M534.73,268.2L104.1,19.57C79.27,5.24,48.23,23.16,48.23,51.83v497.25
		c0,28.67,31.04,46.59,55.87,32.26l430.63-248.63C559.57,318.37,559.57,282.53,534.73,268.2z"/>
	<g id="prev" class="st0">
		<path class="st5" d="M68.1,268.2L498.73,19.57c24.83-14.34,55.87,3.58,55.87,32.26v497.25c0,28.67-31.04,46.59-55.87,32.26
			L68.1,332.71C43.27,318.37,43.27,282.53,68.1,268.2z"/>
		<path class="st5" d="M89.38,586.43L89.38,586.43c22.72,0,41.15-18.42,41.15-41.15V54.61c0-22.72-18.42-41.15-41.15-41.15h0
			c-22.72,0-41.15,18.42-41.15,41.15v490.68C48.23,568.01,66.66,586.43,89.38,586.43z"/>
	</g>
	<g id="pause" class="st0">
		<path class="st5" d="M516.66,586.43H412.54c-20.95,0-37.94-16.99-37.94-37.94V51.4c0-20.95,16.99-37.94,37.94-37.94h104.12
			c20.95,0,37.94,16.99,37.94,37.94v497.09C554.6,569.44,537.61,586.43,516.66,586.43z"/>
		<path class="st5" d="M192.8,586.43H88.68c-20.95,0-37.94-16.99-37.94-37.94V51.4c0-20.95,16.99-37.94,37.94-37.94H192.8
			c20.95,0,37.94,16.99,37.94,37.94v497.09C230.74,569.44,213.76,586.43,192.8,586.43z"/>
	</g>
	<g id="fastforward10" class="st0">
		<path class="st6" d="M452.19,151.64c-3.84,3.84-3.95,10.01-0.3,14.03c35.43,38.99,53.01,88.93,53.34,139.19
			c-0.35,52.63-20.13,105.6-60.75,146.22s-93.6,60.4-146.22,60.75c-53.69,0-106.31-20.13-146.22-60.04S92.36,358.9,92,305.57
			c0.35-52.63,20.13-105.6,60.75-146.22s93.24-60.75,146.57-61.1l0.35,0v49.52c0,5.88,6.53,9.4,11.44,6.17l103.16-67.89
			c4.43-2.92,4.43-9.42,0-12.34L311.12,5.82c-4.91-3.23-11.44,0.29-11.44,6.17v44.93c-64.63-0.35-128.56,24.02-176.95,72.4
			c-48.03,48.03-72.4,111.96-72.05,176.6c-0.35,63.93,23.66,128.21,71.34,175.89s111.96,71.7,175.89,71.34
			c64.28,0,128.56-24.02,176.6-72.05s72.4-111.96,72.05-176.6c0.33-60.59-21.22-121.49-64.07-168.28
			c-3.88-4.24-10.54-4.34-14.61-0.27L452.19,151.64z"/>
		<rect x="-26.04" y="205.21" class="st7" width="646.98" height="433.8"/>
		<text transform="matrix(1 0 0 1 133.8489 433.5279)" class="st6 st8 st9">10</text>
	</g>
	<g id="rewind10" class="st0">
		<path class="st6" d="M145.05,151.64c3.84,3.84,3.95,10.01,0.3,14.03C109.92,204.66,92.34,254.6,92,304.86
			c0.35,52.63,20.13,105.6,60.75,146.22s93.6,60.4,146.22,60.75c53.69,0,106.31-20.13,146.22-60.04s59.69-92.89,60.04-146.22
			c-0.35-52.63-20.13-105.6-60.75-146.22s-93.24-60.75-146.57-61.1l-0.35,0v49.52c0,5.88-6.53,9.4-11.44,6.17L182.96,86.04
			c-4.43-2.92-4.43-9.42,0-12.34L286.12,5.82c4.91-3.23,11.44,0.29,11.44,6.17v44.93c64.63-0.35,128.56,24.02,176.95,72.4
			c48.03,48.03,72.4,111.96,72.05,176.6c0.35,63.93-23.66,128.21-71.34,175.89s-111.96,71.7-175.89,71.34
			c-64.28,0-128.56-24.02-176.6-72.05s-72.4-111.96-72.05-176.6c-0.33-60.59,21.22-121.49,64.07-168.28
			c3.88-4.24,10.54-4.34,14.61-0.27L145.05,151.64z"/>
		<rect x="-26.04" y="205.21" class="st7" width="646.98" height="433.8"/>
		<text transform="matrix(1 0 0 1 133.8489 433.5279)" class="st6 st8 st9">10</text>
	</g>
</g>
</svg>
